<svg xmlns="http://www.w3.org/2000/svg"
 xmlns:xlink="http://www.w3.org/1999/xlink"
 width="23px" height="23px"  viewBox="0 0 23 23">
<path fill-rule="evenodd"  fill="#c7b299"
 d="M11.499695,1.0004883 C5.70166,1.0004883 1.0013428,5.7006836 1.0013428,11.499023 C1.0013428,17.297852 5.70166,21.997559 11.499695,21.997559 C17.298523,21.997559 21.998169,17.297852 21.998169,11.499023 C21.998169,5.7006836 17.298523,1.0004883 11.499695,1.0004883 ZM14.788696,11.996582 C14.788696,11.996582 10.249512,16.535156 10.249512,16.535156 C9.976929,16.808105 9.533386,16.808105 9.259949,16.535156 C8.987366,16.261719 8.987366,15.818359 9.259949,15.54541 C9.259949,15.54541 13.306824,11.499023 13.306824,11.499023 C13.306824,11.499023 9.259949,7.4521484 9.259949,7.4521484 C8.987366,7.179199 8.987366,6.73584 9.259949,6.4628906 C9.533386,6.189453 9.976929,6.189453 10.249512,6.4628906 C10.249512,6.4628906 14.788696,11.002441 14.788696,11.002441 C14.926758,11.139648 14.995178,11.3203125 14.993774,11.499023 C14.993774,11.6796875 14.926758,11.858398 14.788696,11.996582 Z"/>
</svg>