<svg xmlns="http://www.w3.org/2000/svg"
 xmlns:xlink="http://www.w3.org/1999/xlink"
 width="24px" height="24px"  viewBox="0 0 24 24">
<path fill-rule="evenodd"  fill="#d1d1d1"
 d="M8.582764,11.434082 C8.582764,11.434082 13.354858,6.661133 13.354858,6.661133 C13.641541,6.3745117 14.107849,6.3745117 14.395264,6.661133 C14.681885,6.9487305 14.681885,7.4155273 14.395264,7.7021484 C14.395264,7.7021484 10.140686,11.957031 10.140686,11.957031 C10.140686,11.957031 14.395264,16.21045 14.395264,16.21045 C14.681885,16.497559 14.681885,16.96289 14.395264,17.251465 C14.107849,17.538574 13.641541,17.538574 13.354858,17.251465 C13.354858,17.251465 8.582764,12.47998 8.582764,12.47998 C8.437683,12.334961 8.365662,12.14502 8.3671875,11.957031 C8.3671875,11.766602 8.437683,11.579102 8.582764,11.434082 ZM11.987427,1.0258789 C18.053467,1.0258789 22.972107,5.9433594 22.972107,12.010742 C22.972107,18.076172 18.053467,22.994629 11.987427,22.994629 C5.9211426,22.994629 1.0032349,18.076172 1.0032349,12.010742 C1.0032349,5.9433594 5.9211426,1.0258789 11.987427,1.0258789 ZM11.987427,21.52295 C17.232239,21.52295 21.50055,17.253418 21.50055,12.010742 C21.50055,6.7651367 17.232239,2.4970703 11.987427,2.4970703 C6.743164,2.4970703 2.4748535,6.7651367 2.4748535,12.010742 C2.4748535,17.253418 6.743164,21.52295 11.987427,21.52295 Z"/>
</svg>