<svg xmlns="http://www.w3.org/2000/svg"
 xmlns:xlink="http://www.w3.org/1999/xlink"
 width="24px" height="24px"  viewBox="0 0 24 24">
<path fill-rule="evenodd"  fill="#c7b299"
 d="M15.417053,11.434082 C15.417053,11.434082 10.644897,6.661133 10.644897,6.661133 C10.358215,6.3745117 9.891846,6.3745117 9.604492,6.661133 C9.31781,6.9487305 9.31781,7.4155273 9.604492,7.7021484 C9.604492,7.7021484 13.859192,11.957031 13.859192,11.957031 C13.859192,11.957031 9.604492,16.21045 9.604492,16.21045 C9.31781,16.497559 9.31781,16.96289 9.604492,17.251465 C9.891846,17.538574 10.358215,17.538574 10.644897,17.251465 C10.644897,17.251465 15.417053,12.47998 15.417053,12.47998 C15.562195,12.334961 15.634033,12.14502 15.63269,11.957031 C15.63269,11.766602 15.562195,11.579102 15.417053,11.434082 ZM12.012329,1.0258789 C5.946289,1.0258789 1.0275879,5.9433594 1.0275879,12.010742 C1.0275879,18.076172 5.946289,22.994629 12.012329,22.994629 C18.078613,22.994629 22.996582,18.076172 22.996582,12.010742 C22.996582,5.9433594 18.078613,1.0258789 12.012329,1.0258789 ZM12.012329,21.52295 C6.767639,21.52295 2.4992065,17.253418 2.4992065,12.010742 C2.4992065,6.7651367 6.767639,2.4970703 12.012329,2.4970703 C17.256592,2.4970703 21.524902,6.7651367 21.524902,12.010742 C21.524902,17.253418 17.256592,21.52295 12.012329,21.52295 Z"/>
</svg>